<?xml version="1.0" encoding="UTF-8" standalone="no"?>
<!-- Created with Inkscape (http://www.inkscape.org/) -->

<svg
   width="210mm"
   height="297mm"
   viewBox="0 0 210 297"
   version="1.1"
   id="svg5"
   inkscape:version="1.2.1 (9c6d41e410, 2022-07-14)"
   sodipodi:docname="level-base.svg"
   xmlns:inkscape="http://www.inkscape.org/namespaces/inkscape"
   xmlns:sodipodi="http://sodipodi.sourceforge.net/DTD/sodipodi-0.dtd"
   xmlns="http://www.w3.org/2000/svg"
   xmlns:svg="http://www.w3.org/2000/svg">
  <sodipodi:namedview
     id="namedview7"
     pagecolor="#505050"
     bordercolor="#ffffff"
     borderopacity="1"
     inkscape:showpageshadow="0"
     inkscape:pageopacity="0"
     inkscape:pagecheckerboard="1"
     inkscape:deskcolor="#505050"
     inkscape:document-units="mm"
     showgrid="false"
     inkscape:zoom="1"
     inkscape:cx="321.5"
     inkscape:cy="514"
     inkscape:window-width="1856"
     inkscape:window-height="1011"
     inkscape:window-x="64"
     inkscape:window-y="1447"
     inkscape:window-maximized="1"
     inkscape:current-layer="layer1" />
  <defs
     id="defs2" />
  <g
     inkscape:label="Layer 1"
     inkscape:groupmode="layer"
     id="layer1">
    <g
       id="g356">
      <path
         id="rect111"
         style="fill:#ffffff;stroke-width:0.281285"
         transform="scale(1,-1)"
         d="M 0,-297 H 13.451506 V 0 H 0 Z" />
      <path
         id="rect111-3"
         style="fill:#ffffff;stroke-width:0.281285"
         transform="scale(1,-1)"
         d="M 196.54849,-297 H 210 V 0 h -13.45151 z" />
      <path
         id="rect111-6"
         style="fill:#ffffff;stroke-width:0.220856"
         transform="rotate(-90)"
         d="m -297,13.451506 h 13.45151 V 196.54849 H -297 Z" />
      <path
         id="rect111-6-7"
         style="fill:#ffffff;stroke-width:0.220856"
         transform="rotate(-90)"
         d="M -13.451506,13.451506 H 0 V 196.54849 h -13.451506 z" />
      <path
         id="path272"
         style="fill:#ffffff;stroke:#000000;stroke-width:0.264583"
         d="m 5.9884771,144.53874 a 0.0468167,0.0468167 0 0 1 -0.046817,0.0468 0.0468167,0.0468167 0 0 1 -0.046817,-0.0468 0.0468167,0.0468167 0 0 1 0.046817,-0.0468 0.0468167,0.0468167 0 0 1 0.046817,0.0468 z" />
    </g>
    <path
       id="rect470"
       style="fill:#ff0000;stroke-width:0.264583"
       d="M 13.451375 238.15239 L 13.451375 283.54858 L 196.54873 283.54858 L 196.54873 238.15239 A 9.2685776 9.2685776 0 0 1 187.28004 247.42056 L 174.82861 247.42056 L 174.82861 266.854 A 8.4687929 8.4687929 0 0 1 166.35987 275.32273 L 43.64023 275.32273 A 8.4687929 8.4687929 0 0 1 35.171497 266.854 L 35.171497 247.42056 L 22.72006 247.42056 A 9.2685776 9.2685776 0 0 1 13.451375 238.15239 z " />
  </g>
</svg>
